<svg width="12" height="7" viewBox="0 0 12 7" fill="none" xmlns="http://www.w3.org/2000/svg">
<path d="M5.575 6.7751C5.44167 6.7751 5.31267 6.7501 5.188 6.7001C5.06267 6.6501 4.95833 6.58343 4.875 6.5001L0.275 1.9001C0.0916663 1.71676 0 1.48343 0 1.2001C0 0.916764 0.0916663 0.683431 0.275 0.500097C0.458333 0.316764 0.691667 0.225098 0.975 0.225098C1.25833 0.225098 1.49167 0.316764 1.675 0.500097L5.575 4.4001L9.475 0.500097C9.65833 0.316764 9.89167 0.225098 10.175 0.225098C10.4583 0.225098 10.6917 0.316764 10.875 0.500097C11.0583 0.683431 11.15 0.916764 11.15 1.2001C11.15 1.48343 11.0583 1.71676 10.875 1.9001L6.275 6.5001C6.175 6.6001 6.06667 6.67076 5.95 6.7121C5.83333 6.7541 5.70833 6.7751 5.575 6.7751Z" fill="#5A616A"/>
</svg>
