<svg width="199" height="29" viewBox="0 0 199 29" fill="none" xmlns="http://www.w3.org/2000/svg">
<path d="M18.2109 3.82812H15.2344V25.1562H18.2109V3.82812ZM0.375 19.1328L0.773438 21.5703C4.57031 21.582 9.59766 21.5352 14.2734 20.7266L14.0625 18.5234C12.3516 18.7461 10.5586 18.8867 8.76562 18.9688V17.2695C11.1094 16.8359 12.6328 15.3828 12.6328 13.3906C12.6328 11.0117 10.4297 9.38281 7.26562 9.38281C4.125 9.38281 1.95703 11.0117 1.96875 13.3906C1.95703 15.3945 3.48047 16.8477 5.8125 17.2695V19.0742C3.86719 19.1211 2.00391 19.1211 0.375 19.1328ZM0.796875 8.53906H13.7578V6.19531H8.78906V3.92188H5.8125V6.19531H0.796875V8.53906ZM4.80469 13.3906C4.79297 12.2891 5.8125 11.668 7.26562 11.6562C8.76562 11.668 9.77344 12.2891 9.77344 13.3906C9.77344 14.5156 8.76562 15.125 7.26562 15.125C5.8125 15.125 4.79297 14.5156 4.80469 13.3906ZM39.0938 3.85156H36.0938V16.2266H32.0156V18.2656H36.0938V19.9531H39.0938V3.85156ZM20.9531 13.2969L21.3047 15.6641C22.9219 15.6641 24.7383 15.6523 26.6484 15.582V18.4062H23.6719V24.7812H39.5625V22.3906H26.6484V19.4609H29.6484V15.4062C31.3711 15.2773 33.1172 15.0781 34.8047 14.7969L34.6406 12.6641C30.1289 13.2148 24.8555 13.2734 20.9531 13.2969ZM22.5234 8.39844C22.5234 10.6836 24.7148 12.1602 27.8906 12.1484C30.9844 12.1602 33.1992 10.6836 33.2109 8.39844C33.1992 6.125 30.9844 4.56641 27.8906 4.57812C24.7148 4.56641 22.5234 6.125 22.5234 8.39844ZM25.3594 8.39844C25.3477 7.34375 26.3672 6.75781 27.8906 6.75781C29.3203 6.75781 30.3516 7.34375 30.375 8.39844C30.3516 9.42969 29.3203 10.0039 27.8906 9.99219C26.3672 10.0039 25.3477 9.42969 25.3594 8.39844ZM49.5469 7.17969V4.95312H46.5469V6.89844C46.5234 9.83984 45 12.6758 41.4375 13.8594L43.0547 16.2031C45.4922 15.3828 47.1445 13.6953 48.0703 11.5508C48.9844 13.4141 50.5664 14.8672 52.8281 15.6172L54.4219 13.2969C51.0469 12.2539 49.5352 9.76953 49.5469 7.17969ZM44.3906 21.0312C44.3789 23.6445 47.2031 25.168 51.7031 25.1562C56.1211 25.168 58.8867 23.6445 58.8984 21.0312C58.8867 18.4414 56.1211 16.9062 51.7031 16.9062C47.2031 16.9062 44.3789 18.4414 44.3906 21.0312ZM47.3906 21.0312C47.3672 19.8711 48.9023 19.25 51.7031 19.25C54.4688 19.25 55.9453 19.8711 55.9453 21.0312C55.9453 22.2383 54.4688 22.8125 51.7031 22.8125C48.9023 22.8125 47.3672 22.2383 47.3906 21.0312ZM55.6875 16.4844H58.6875V11.3047H61.5703V8.82031H58.6875V3.82812H55.6875V16.4844ZM69.3516 9.19531V5.65625H66.4453V9.33594C66.4453 12.9453 65.2734 16.707 62.1094 18.6641L63.9375 20.8672C65.8711 19.6953 67.1484 17.668 67.9102 15.2539C68.5898 17.4336 69.75 19.2852 71.6016 20.3984L73.2188 18.0781C70.3008 16.2148 69.3398 12.6523 69.3516 9.19531ZM70.9688 13.4609H73.7344V24.1719H76.5234V4.13281H73.7344V11.0234H70.9688V13.4609ZM78.1406 25.1562H81V3.82812H78.1406V25.1562Z" fill="#0B101A"/>
<circle cx="99.6484" cy="5.87695" r="3" fill="#FF4D4F"/>
<path d="M117.285 15.1191H115.973V8.78906H117.285V15.1191ZM107.305 13.7109C107.605 13.7109 108.102 13.7064 108.795 13.6973V10.6211H107.633V9.5957H114.291V10.6211H113.115V13.5195C113.73 13.4785 114.309 13.4238 114.852 13.3555L114.906 14.2988C113.817 14.4629 112.648 14.5791 111.399 14.6475C110.151 14.7158 108.911 14.75 107.681 14.75H107.455L107.305 13.7109ZM109.15 15.6797H117.285V18.7148H110.463V19.877H117.709V20.916H109.191V17.7715H116V16.7051H109.15V15.6797ZM110.039 13.6699C110.864 13.6426 111.475 13.6175 111.871 13.5947V10.6211H110.039V13.6699ZM125.475 9.86914C125.475 10.4023 125.671 10.915 126.062 11.4072C126.459 11.8994 126.992 12.3187 127.662 12.665C128.337 13.0114 129.07 13.237 129.863 13.3418L129.357 14.4082C128.692 14.3034 128.061 14.1211 127.464 13.8613C126.867 13.6016 126.338 13.2803 125.878 12.8975C125.422 12.5101 125.062 12.0794 124.798 11.6055C124.534 12.0794 124.171 12.5101 123.711 12.8975C123.255 13.2803 122.731 13.6016 122.139 13.8613C121.546 14.1165 120.917 14.2988 120.252 14.4082L119.732 13.3418C120.525 13.237 121.257 13.0137 121.927 12.6719C122.597 12.3301 123.13 11.9131 123.526 11.4209C123.923 10.9242 124.121 10.4069 124.121 9.86914V9.19922H125.475V9.86914ZM119.199 15.6113H130.369V16.6777H125.393V21.0391H124.121V16.6777H119.199V15.6113ZM140.924 12.1113H142.701V13.2051H140.924V16.6504H139.625V8.78906H140.924V12.1113ZM131.312 10.1016H134.32V8.69336H135.619V10.1016H138.613V11.127H131.312V10.1016ZM131.982 13.875C131.982 13.4421 132.105 13.0615 132.352 12.7334C132.598 12.4007 132.946 12.1432 133.397 11.9609C133.849 11.7786 134.37 11.6875 134.963 11.6875C135.546 11.6875 136.061 11.7786 136.508 11.9609C136.959 12.1432 137.308 12.4007 137.554 12.7334C137.804 13.0615 137.93 13.4421 137.93 13.875C137.93 14.3079 137.804 14.6885 137.554 15.0166C137.308 15.3402 136.959 15.5908 136.508 15.7686C136.061 15.9463 135.546 16.0352 134.963 16.0352C134.375 16.0352 133.853 15.9463 133.397 15.7686C132.946 15.5908 132.598 15.3402 132.352 15.0166C132.105 14.6885 131.982 14.3079 131.982 13.875ZM132.953 18.8926C132.949 18.446 133.108 18.0632 133.432 17.7441C133.755 17.4206 134.222 17.1745 134.833 17.0059C135.448 16.8327 136.175 16.7461 137.014 16.7461C137.843 16.7461 138.561 16.8327 139.167 17.0059C139.778 17.1745 140.245 17.4206 140.568 17.7441C140.896 18.0632 141.061 18.446 141.061 18.8926C141.061 19.3346 140.896 19.7152 140.568 20.0342C140.245 20.3532 139.778 20.5947 139.167 20.7588C138.561 20.9274 137.843 21.0117 137.014 21.0117C136.175 21.0117 135.451 20.9274 134.84 20.7588C134.229 20.5947 133.76 20.3532 133.432 20.0342C133.108 19.7152 132.949 19.3346 132.953 18.8926ZM133.24 13.875C133.236 14.112 133.304 14.3193 133.445 14.4971C133.587 14.6748 133.787 14.8115 134.047 14.9072C134.311 15.0029 134.617 15.0508 134.963 15.0508C135.487 15.0508 135.909 14.946 136.228 14.7363C136.547 14.5221 136.708 14.235 136.713 13.875C136.708 13.6289 136.633 13.4147 136.487 13.2324C136.341 13.0501 136.136 12.9089 135.872 12.8086C135.612 12.7083 135.309 12.6582 134.963 12.6582C134.617 12.6582 134.313 12.7083 134.054 12.8086C133.794 12.9089 133.591 13.0501 133.445 13.2324C133.304 13.4147 133.236 13.6289 133.24 13.875ZM134.238 18.8926C134.234 19.2526 134.475 19.5329 134.963 19.7334C135.451 19.9294 136.134 20.0273 137.014 20.0273C137.884 20.0273 138.561 19.9294 139.044 19.7334C139.527 19.5329 139.771 19.2526 139.775 18.8926C139.771 18.5234 139.527 18.2409 139.044 18.0449C138.565 17.849 137.889 17.7487 137.014 17.7441C136.125 17.7487 135.439 17.849 134.956 18.0449C134.473 18.2409 134.234 18.5234 134.238 18.8926ZM153.146 13.4922H149.619V14.9141H154.568V15.9668H143.398V14.9141H148.334V13.4922H144.82V9.29492H153.146V13.4922ZM144.643 17.1289H153.201V21.0391H151.889V18.1543H144.643V17.1289ZM151.861 12.4531V10.3203H146.092V12.4531H151.861Z" fill="#FF4D4F"/>
</svg>
